<svg id="logo" xmlns="http://www.w3.org/2000/svg" viewBox="0 0 767 207"><defs><style>.cls-1{fill:#40b4e5;}.cls-2{fill:none;}.cls-3{fill:#009bde;}.cls-4{fill:#fff;}</style></defs><title>coupa-fullColor_logo</title><path class="cls-1" d="M340.32,141.93a40.23,40.23,0,0,1-21,5.38c-23.69,0-37.46-16.46-37.46-44.35,0-19.82,7.56-32.93,17.64-39.82a40.75,40.75,0,0,1,21.34-6.38,36.73,36.73,0,0,1,16.63,3.86c3.19,1.68,4.7,2.86,8.4,6L334.95,81.45c-4.54-4.2-9.41-6.72-13.61-6.72-10.08,0-14.62,8.74-14.62,28.9,0,11.26,1.51,18,4.37,21.67a13,13,0,0,0,10.08,4.87c5.21,0,9.91-2.18,15.46-7.06l1.34-1.18,10.25,13.61A35.52,35.52,0,0,1,340.32,141.93Z"/><path class="cls-1" d="M415.25,135.21c-6.55,7.39-15.12,11.93-28.39,11.93-23.35,0-38.64-17.47-38.64-44.52s15.46-45,38.64-45c12.26,0,21.84,4.2,29.23,12.94C423,78.59,426,88,426,101.95,426,116.73,422.64,126.81,415.25,135.21ZM396.94,78.76a12,12,0,0,0-9.74-4.54c-5.37,0-9.74,3.36-11.59,8.74-1.51,4.54-2.35,10.58-2.35,19.15,0,9.91,1,17.3,2.86,21.67,2,4.7,7.06,7.06,11.42,7.06,9.74,0,13.94-8.74,13.94-29.06C401.47,90.19,400,82.63,396.94,78.76Z"/><path class="cls-1" d="M489.34,147.64a19.71,19.71,0,0,1-6.72-8.4c-5.54,5.38-13.61,8.23-22.68,8.23-12.1,0-22.51-5.71-25.37-13.94-1.34-3.86-1.85-8.4-1.85-17.14V61.29l22.18-4.2v55.27c0,7.73.67,11.76,1.85,14.11s4.54,4,7.9,4c5.54,0,12.26-4,13.94-8.23V61.79l21.5-4.54v65.69c0,5.71,1.85,11.59,5.21,15.62Z"/><path class="cls-1" d="M577.54,137.39a30.65,30.65,0,0,1-23,9.74,36.1,36.1,0,0,1-18-4.54,46.2,46.2,0,0,1,.34,7.06v26.88l-21.67,5.71V82.79c0-11.26-.17-14.45-1.34-21.67l20-3.53a37.53,37.53,0,0,1,1.51,8.06c3.86-4.7,12.43-8.06,21.17-8.06a31.12,31.12,0,0,1,17,5.21c9.24,6.22,16,17.3,16,37.13C589.46,118.41,586.44,127.82,577.54,137.39ZM562.75,83.13c-1.68-4.7-5.21-7.22-10.75-7.22a20.78,20.78,0,0,0-15,6.55v41.83c3,2.52,7.9,5,12.43,5,11.09,0,15.46-7.56,15.46-27.22C564.94,93.88,564.26,87.33,562.75,83.13Z"/><path class="cls-1" d="M657.84,149.66c-5.21-2.18-9.91-6-12.1-10.42a41.86,41.86,0,0,1-5.21,4.54c-4.2,3-10.25,4.7-17.3,4.7-19.15,0-29.57-9.74-29.57-26.88C593.66,101.44,607.61,92,635,92c1.68,0,3.19,0,5,.17V88.67c0-9.58-1.85-12.77-10.08-12.77-7.22,0-15.62,3.53-24.86,9.74l-9.58-16.13a82.74,82.74,0,0,1,13.94-7.06,58.22,58.22,0,0,1,23.52-5c14.45,0,24.36,5.38,27.72,15,1.18,3.53,1.68,6.22,1.51,15.46l-.5,28.9c-.17,9.41.5,13.44,8.06,19.15Zm-19.15-42c-15.62,0-21,2.86-21,13.1,0,6.72,4.2,11.26,9.91,11.26,4.2,0,8.4-2.18,11.76-5.88l.34-18.48Z"/><path class="cls-2" d="M257.91,102.23c5.61-1,10.77-2.85,13.42-6a7.5,7.5,0,0,0,1.81-6.12c-.88-5.48-7.84-9.37-15.43-12,3.11-2.23,5.44-4.64,6.47-7.17a7.5,7.5,0,0,0-.36-6.75c-2.36-4.05-8.57-6.1-18.47-6.1h0c1.92-3.06,3.25-6.27,3.18-9.26a7.75,7.75,0,0,0-2.77-6,10.77,10.77,0,0,0-7.09-2.18,31.41,31.41,0,0,0-9.26,1.69,17.63,17.63,0,0,0-.56-7.34,8.51,8.51,0,0,0-4.73-5.38,8.89,8.89,0,0,0-3.52-.69c-3.6,0-8,2.05-12.51,5.67-2-7-5.61-11.36-10.29-11.89a8.43,8.43,0,0,0-.93-.05c-4.1,0-8,3-11.2,8.29-3.81-4.66-8.08-7.74-12.35-7.74a8.58,8.58,0,0,0-1.34.1,8.84,8.84,0,0,0-6.14,4.22,19.74,19.74,0,0,0-2.62,8.73c-5.46-3.32-10.44-5.18-14.26-5.18a9.85,9.85,0,0,0-4.42,1,8,8,0,0,0-4.25,5.39A16.36,16.36,0,0,0,141,46.4a49,49,0,0,0-9.52-1.09c-4.63,0-7.91,1-10,3.09a7.64,7.64,0,0,0-2.16,6.82c.52,3.3,2.92,6.8,6.41,10.24-9.57,1-19.93,3.55-22.46,9.53a7.44,7.44,0,0,0,.41,6.6c1.88,3.41,6.28,6.07,11.44,8.1-10.16,4.87-18.08,10.8-17.9,17.13.13,4.36,3.63,9.57,19.55,9.57,1.32,0,2.7,0,4.11-.1-8.89,9-17.07,20.07-12.78,27.16,1.16,1.92,3.63,4.2,8.88,4.2,4.7,0,11.25-1.91,18.83-5.38-3.41,8.82-5.18,16.9-4,22.45a9.6,9.6,0,0,0,4.32,6.52,9,9,0,0,0,4.7,1.26c6.87,0,15.94-7.09,24.83-17.25.62,10.7,2.68,20.44,7,25.42a9.74,9.74,0,0,0,7,3.62,1.54,1.54,0,0,1,.42,0c8.86,0,14.79-12.27,18.45-24.14,6,10.41,12.81,17.52,19.26,17.52a8.76,8.76,0,0,0,3.4-.68c7.71-3.22,8.68-16.1,6.68-30.36,7.95,5.76,15,9,20,9h0a8.82,8.82,0,0,0,7-3c4.77-5.59.92-15.69-4.38-24.69a46.76,46.76,0,0,0,8.88,1h0c8.19,0,10.91-3.47,11.74-6.38C273,116.33,266.54,108.9,257.91,102.23Z"/><path class="cls-1" d="M231.54,90.89c-2.89-1.39-5.74-2.64-8.5-3.76,2.77-.56,5.58-1.22,8.41-2,19.54-5.36,31.94-13.77,28.93-18.92-2.9-5-19.42-5.53-38-1.14-2.69.63-5.28,1.33-7.77,2.09,1.31-1.91,2.57-3.91,3.75-6,7.86-13.81,9.35-25.65,4.2-27.85s-15.71,5.53-24.63,18.53q-2,2.9-3.67,5.85c-.59-2.14-1.28-4.32-2.08-6.5-5.38-14.72-13.89-24.82-19.58-23.91s-7.41,13-3.11,28.5c.65,2.29,1.38,4.55,2.19,6.72q-3.46-2-7.29-3.79c-18-8.6-35.59-11.9-40.07-7.5-4.67,4.59,6.33,16,25.42,25.58,2.71,1.37,5.43,2.62,8.12,3.76-3.13.55-6.39,1.21-9.77,2-25.27,6-47,16.81-46.83,24.08.23,7.6,24.14,7.52,51.3.08,3.61-1,7.06-2.05,10.32-3.17q-3.13,4-6.29,8.6C140,136.43,130.47,163.1,138.24,167.8s28.53-16.08,43.39-42.16c1.87-3.3,3.56-6.49,5-9.56q1,4.88,2.45,10.19c7.72,27.68,22,50.58,30.56,47,8.31-3.47,6.13-30.07-3.28-55.78-1.2-3.3-2.46-6.4-3.76-9.33,2.77,1.65,5.74,3.27,8.85,4.83,22.91,11.55,43.89,15.4,45.88,8.44C269.26,114.8,252.83,101.07,231.54,90.89Z"/><g id="Layer_2" data-name="Layer 2"><path class="cls-3" d="M169.46,99c-2.45.83-5.06,1.62-7.77,2.35a116.51,116.51,0,0,1-22.18,3.89c-18.65,14.42-31.6,30.15-28,36.17S133.36,140.91,153,128a108.48,108.48,0,0,1,11.85-22.66Q167.14,102,169.46,99Z"/><path class="cls-3" d="M165.2,81.34c-2.1-.88-4.23-1.86-6.36-2.92a76.86,76.86,0,0,1-15-9.56c-18.91-.58-34.64,2.41-36.88,7.69S116.75,87.67,135,90.72a116,116,0,0,1,22.67-7.81C160.29,82.29,162.79,81.77,165.2,81.34Z"/><path class="cls-3" d="M175.7,67.05c-.67-1.75-1.28-3.57-1.82-5.43a50.13,50.13,0,0,1-2.17-14c-10.48-9.25-20.87-14.25-25.43-12s-2.37,11.09,5.12,21.74A86.49,86.49,0,0,1,169.9,64C171.93,65,173.87,66,175.7,67.05Z"/><path class="cls-3" d="M209.66,70.65c2-.62,4.08-1.19,6.23-1.71a86.17,86.17,0,0,1,16.88-2.43c9.87-9.06,14.13-17.45,10.41-20.55-3.5-2.92-13.39-.59-24.6,5.59a48.57,48.57,0,0,1-5.84,14.27C211.76,67.49,210.74,69.11,209.66,70.65Z"/><path class="cls-3" d="M187.66,108.36c-1.11,2.26-2.37,4.6-3.77,7a115.54,115.54,0,0,1-13.79,19.1c-2.15,24.41,1.5,45.4,9.78,45.79,7.93.37,15.86-18.38,19.42-41.31a98.66,98.66,0,0,1-9.75-23.09C188.79,113.28,188.17,110.77,187.66,108.36Z"/><path class="cls-3" d="M193.54,63.09c.89-1.6,1.88-3.19,2.94-4.79a58.25,58.25,0,0,1,9.34-10.93c-.31-11.73-3.74-20.09-8.49-20.62-4.59-.51-9.65,6.33-12.68,17.06a53.27,53.27,0,0,1,7.24,14C192.53,59.57,193.08,61.35,193.54,63.09Z"/><path class="cls-3" d="M269.19,90.79c-.81-5-12.9-10.14-28.95-12.9a71.93,71.93,0,0,1-17.59,7c-2.24.61-4.48,1.13-6.66,1.57,2.14.87,4.35,1.84,6.59,2.92a103.35,103.35,0,0,1,17,10.18C257.53,99.77,270.06,96.19,269.19,90.79Z"/><path class="cls-3" d="M207.57,102.54q1.43,3.29,2.76,7a103.13,103.13,0,0,1,5.19,21.15c15.89,15.75,31.79,24.72,36.4,19.33,4.25-5-3.12-20.23-15.91-35.75a96.86,96.86,0,0,1-21.7-8.07C211.94,105,209.68,103.79,207.57,102.54Z"/></g><path class="cls-4" d="M239.61,99.53a103.55,103.55,0,0,0-17-10.17c-2.24-1.08-4.45-2.05-6.59-2.93,2.19-.44,4.42-1,6.66-1.57a72,72,0,0,0,17.59-7c4.89-2.92,7.32-5.88,6.15-8.11-1.26-2.39-6.47-3.49-13.62-3.26a86.23,86.23,0,0,0-16.88,2.43c-2.15.52-4.24,1.09-6.23,1.7,1.08-1.54,2.11-3.15,3.08-4.82a48.53,48.53,0,0,0,5.84-14.27c.91-4.57.31-7.86-1.91-8.84-2.44-1.07-6.46.77-10.84,4.65a58.31,58.31,0,0,0-9.34,10.93c-1.07,1.6-2.06,3.19-2.95,4.79-.46-1.74-1-3.52-1.65-5.29a53.26,53.26,0,0,0-7.24-14c-3-4-6.18-6.28-8.65-5.85-2.74.49-4.24,4.19-4.29,9.72a50.21,50.21,0,0,0,2.17,14c.54,1.85,1.15,3.67,1.82,5.43q-2.75-1.56-5.8-3a86.36,86.36,0,0,0-18.49-6.59C145,56,140,56.15,138.24,58.11c-2,2.2.29,6.25,5.61,10.75a77,77,0,0,0,15,9.56c2.13,1.07,4.26,2,6.36,2.92-2.4.43-4.91,1-7.48,1.57A116,116,0,0,0,135,90.72c-7.45,3.6-12.15,7.42-11.86,10.4.33,3.36,6.85,4.7,16.33,4.08a116.4,116.4,0,0,0,22.17-3.88c2.71-.73,5.31-1.52,7.77-2.35q-2.31,3-4.62,6.41A108.58,108.58,0,0,0,153,128c-3.06,8.45-3.53,15-.35,16.8,3.52,2,10.28-2.43,17.46-10.35a115.46,115.46,0,0,0,13.79-19.1c1.4-2.41,2.66-4.75,3.77-7,.51,2.4,1.13,4.91,1.88,7.51A98.71,98.71,0,0,0,199.29,139c4.49,7.41,9.2,11.7,12.67,10.4,3.75-1.39,4.8-8.85,3.56-18.68a103.21,103.21,0,0,0-5.2-21.15c-.88-2.46-1.8-4.79-2.76-7,2.11,1.25,4.37,2.47,6.73,3.66a96.81,96.81,0,0,0,21.7,8.07c7.3,1.6,12.49,1.2,13.48-1.59C250.55,109.7,246.53,104.74,239.61,99.53Z"/></svg>